<svg xmlns="http://www.w3.org/2000/svg" xmlns:xlink="http://www.w3.org/1999/xlink" width="25" height="27" viewBox="0 0 25 27">
  <defs>
    <clipPath id="clip-path">
      <rect id="Rectangle_1560" data-name="Rectangle 1560" width="25" height="27" transform="translate(484 75)" fill="#fff" stroke="#707070" stroke-width="1"/>
    </clipPath>
  </defs>
  <g id="Mask_Group_1" data-name="Mask Group 1" transform="translate(-484 -75)" clip-path="url(#clip-path)">
    <path id="_4cc4b287aeb383c37cdfacddce3a5c87" data-name="4cc4b287aeb383c37cdfacddce3a5c87" d="M4.375,7.5a1.3,1.3,0,0,0-1.25,1.35,1.3,1.3,0,0,0,1.25,1.35,1.3,1.3,0,0,0,1.25-1.35A1.3,1.3,0,0,0,4.375,7.5Zm5,2.7h17.5a1.3,1.3,0,0,0,1.25-1.35,1.3,1.3,0,0,0-1.25-1.35H9.375a1.3,1.3,0,0,0-1.25,1.35A1.3,1.3,0,0,0,9.375,10.2Zm0,4.05a1.354,1.354,0,0,0,0,2.7,1.354,1.354,0,0,0,0-2.7Zm5,6.75a1.354,1.354,0,1,0,1.25,1.35A1.3,1.3,0,0,0,14.375,21Zm12.5-6.75h-12.5a1.354,1.354,0,0,0,0,2.7h12.5a1.354,1.354,0,0,0,0-2.7Zm0,6.75h-7.5a1.354,1.354,0,0,0,0,2.7h7.5a1.354,1.354,0,0,0,0-2.7Z" transform="translate(480.875 72.9)"/>
  </g>
</svg>
