<?xml version="1.0" encoding="UTF-8"?>
<svg id="Layer_2" data-name="Layer 2" xmlns="http://www.w3.org/2000/svg" xmlns:xlink="http://www.w3.org/1999/xlink" viewBox="0 0 600 248.87">
  <defs>
    <style>
      .cls-1 {
      fill: url(#linear-gradient);
      }

      .cls-1, .cls-2, .cls-3, .cls-4, .cls-5, .cls-6, .cls-7, .cls-8, .cls-9, .cls-10 {
      stroke-width: 0px;
      }

      .cls-2 {
      fill: url(#linear-gradient-6);
      }

      .cls-3 {
      fill: url(#linear-gradient-5);
      }

      .cls-4 {
      fill: url(#linear-gradient-2);
      }

      .cls-5 {
      fill: url(#linear-gradient-7);
      }

      .cls-6 {
      fill: url(#linear-gradient-3);
      }

      .cls-7 {
      fill: url(#linear-gradient-9);
      }

      .cls-8 {
      fill: url(#New_Gradient_Swatch);
      }

      .cls-9 {
      fill: url(#linear-gradient-8);
      }

      .cls-10 {
      fill: url(#linear-gradient-4);
      }
    </style>
    <linearGradient id="New_Gradient_Swatch" data-name="New Gradient Swatch" x1="242.57" y1="142.9" x2="369.67" y2="15.79" gradientUnits="userSpaceOnUse">
      <stop offset="0" stop-color="#46cc00"/>
      <stop offset="1" stop-color="#afff0f"/>
    </linearGradient>
    <linearGradient id="linear-gradient" x1="-36.95" y1="225.14" x2="675.29" y2="225.14" gradientUnits="userSpaceOnUse">
      <stop offset="0" stop-color="#46cc00"/>
      <stop offset="1" stop-color="#afff0f"/>
    </linearGradient>
    <linearGradient id="linear-gradient-2" x1="-36.92" x2="675.2" xlink:href="#linear-gradient"/>
    <linearGradient id="linear-gradient-3" x1="-36.91" y1="224.76" x2="675.2" y2="224.76" xlink:href="#linear-gradient"/>
    <linearGradient id="linear-gradient-4" x1="-36.9" x2="675.22" xlink:href="#linear-gradient"/>
    <linearGradient id="linear-gradient-5" x1="-36.94" y1="224.76" x2="675.25" y2="224.76" xlink:href="#linear-gradient"/>
    <linearGradient id="linear-gradient-6" x1="-36.97" x2="675.27" xlink:href="#linear-gradient"/>
    <linearGradient id="linear-gradient-7" x1="-36.94" x2="675.25" xlink:href="#linear-gradient"/>
    <linearGradient id="linear-gradient-8" x1="-36.93" y1="224.76" x2="675.23" y2="224.76" xlink:href="#linear-gradient"/>
    <linearGradient id="linear-gradient-9" x1="-36.92" y1="224.76" x2="675.24" y2="224.76" xlink:href="#linear-gradient"/>
  </defs>
  <g id="OCTAGATOR_LOGO" data-name="OCTAGATOR LOGO">
    <g id="Logo">
      <path class="cls-8" d="m394.73,42.65l-45.45-37.88c-3.7-3.08-8.36-4.77-13.18-4.77h-67.94c-4.81,0-9.47,1.69-13.17,4.77l-45.45,37.88c-4.69,3.91-7.41,9.7-7.41,15.81v49.75c0,6.11,2.72,11.9,7.41,15.81l45.45,37.88c3.7,3.08,8.36,4.77,13.17,4.77h67.94c4.82,0,9.48-1.69,13.18-4.77l45.45-37.88c4.69-3.91,7.4-9.7,7.4-15.81v-49.75c0-6.11-2.71-11.9-7.4-15.81Zm-92.6,115.68c-6.34-8.45-25-35.56-25-75,0-10.56,1.34-43.45,25-75,6.34,8.46,25,35.57,25,75,0,10.57-1.34,43.46-25,75Z" style="stroke-width:0px;fill:url(#New_Gradient_Swatch);" />
      <g>
        <path class="cls-1" d="m123.01,236.67h-27.76c-8.01,0-13.9-4.61-13.9-11.35s5.96-11.56,13.9-11.56h22.5c.84,0,1.63-.39,2.15-1.06l5.29-6.93c1.37-1.78.1-4.35-2.15-4.35h-27.79c-16.46,0-28.59,9.36-28.59,23.27s12.13,24.18,28.59,24.18h22.51c.83,0,1.62-.38,2.14-1.05l5.25-6.78c1.37-1.78.1-4.37-2.14-4.37Z" style="fill:url(#linear-gradient);stroke-width:0px;" />
        <path class="cls-4" d="m191.33,201.42h-47.08c-.84,0-1.63.39-2.14,1.05l-5.34,6.93c-1.37,1.78-.1,4.36,2.14,4.36h14.07c1.49,0,2.71,1.21,2.71,2.71v29.7c0,1.49,1.21,2.7,2.7,2.7h9.27c1.5,0,2.71-1.21,2.71-2.7v-29.7c0-1.5,1.21-2.71,2.71-2.71h12.91c.84,0,1.63-.39,2.15-1.05l5.33-6.93c1.37-1.78.1-4.36-2.14-4.36Z" style="stroke-width:0px;fill:url(#linear-gradient-2);" />
        <path class="cls-6" d="m262.91,244.63l-26.71-38.67c-2.06-2.98-4.97-5.32-9.37-5.32s-7.52,2.55-9.5,5.32l-27.4,38.64c-1.27,1.8.01,4.27,2.2,4.27h10.74c.88,0,1.71-.42,2.21-1.14l19.21-27.16c1.09-1.54,3.39-1.52,4.45.04l6.32,9.32c.54.79,1.13,1.65,1.72,2.51,1.25,1.8-.05,4.25-2.24,4.24-1.05-.01-2.1-.01-3.1-.01h-10.53c-.87,0-1.68.42-2.19,1.12l-4.94,6.79c-1.3,1.79-.02,4.29,2.19,4.29h44.72c2.18,0,3.46-2.44,2.22-4.24Z" style="stroke-width:0px;fill:url(#linear-gradient-3);" />
        <path class="cls-10" d="m325,219.22h-26.39c-.8,0-1.57.36-2.08.98l-4.29,5.16c-1.47,1.76-.21,4.43,2.08,4.43h16.06c1.5,0,2.71,1.21,2.71,2.71v1.47c0,1.49-1.21,2.7-2.71,2.7h-15.24c-8.15,0-13.97-4.47-13.97-11.35s6.03-11.56,13.97-11.56h23.14c.84,0,1.64-.39,2.15-1.05l5.34-6.93c1.37-1.78.1-4.36-2.15-4.36h-28.48c-16.45,0-28.58,9.36-28.58,23.27s12.13,24.18,28.58,24.18h29.86c1.49,0,2.7-1.21,2.7-2.7v-24.24c0-1.49-1.21-2.71-2.7-2.71Z" style="stroke-width:0px;fill:url(#linear-gradient-4);" />
        <path class="cls-3" d="m412.73,244.63l-26.72-38.67c-2.06-2.98-4.97-5.32-9.36-5.32-4.61,0-7.52,2.55-9.51,5.32l-27.4,38.64c-1.27,1.8.01,4.27,2.21,4.27h10.74c.88,0,1.7-.42,2.21-1.14l19.21-27.16c1.09-1.54,3.38-1.52,4.45.04l6.32,9.32c.53.79,1.12,1.65,1.72,2.51,1.24,1.8-.06,4.25-2.25,4.24-1.05-.01-2.1-.01-3.09-.01h-10.54c-.87,0-1.68.42-2.19,1.12l-4.93,6.79c-1.3,1.79-.03,4.29,2.19,4.29h44.71c2.18,0,3.47-2.44,2.23-4.24Z" style="stroke-width:0px;fill:url(#linear-gradient-5);" />
        <path class="cls-2" d="m463.43,201.42h-47.08c-.84,0-1.63.39-2.14,1.05l-5.34,6.93c-1.37,1.78-.1,4.36,2.15,4.36h14.06c1.5,0,2.71,1.21,2.71,2.71v29.7c0,1.49,1.21,2.7,2.71,2.7h9.27c1.49,0,2.7-1.21,2.7-2.7v-29.7c0-1.5,1.21-2.71,2.71-2.71h12.92c.83,0,1.63-.39,2.14-1.05l5.34-6.93c1.37-1.78.1-4.36-2.15-4.36Z" style="stroke-width:0px;fill:url(#linear-gradient-6);" />
        <path class="cls-5" d="m594.25,239.65c-1.28-1.31-2.34-2.37-3.24-3.25-1.36-1.31-.98-3.54.71-4.37,5.27-2.58,8.28-7.7,8.28-13.66,0-13.55-13.62-16.95-24.4-16.95h-29.18c-.84,0-1.63.39-2.14,1.05l-5.37,6.93c-1.38,1.77-.12,4.36,2.13,4.36h35.76c5.04,0,8.09,1.85,8.09,5.53,0,3.27-3.55,5.32-8.09,5.32h-38.58c-1.49,0-2.7,1.22-2.7,2.71v18.85c0,1.49,1.21,2.7,2.7,2.7h9.28c1.49,0,2.7-1.21,2.7-2.7v-7.15c0-1.49,1.21-2.7,2.71-2.7h18.59c.8,0,1.56.35,2.07.96l8.95,10.63c.51.61,1.27.96,2.07.96h12.1c2.38,0,3.6-2.84,1.97-4.56l-4.41-4.66Z" style="stroke-width:0px;fill:url(#linear-gradient-7);" />
        <path class="cls-9" d="m55.74,212.98l-13.16-10.96c-1.07-.89-2.42-1.38-3.81-1.38h-19.66c-1.4,0-2.75.49-3.82,1.38l-13.15,10.96c-1.36,1.13-2.14,2.81-2.14,4.58v14.4c0,1.76.78,3.44,2.14,4.57l13.15,10.96c1.07.9,2.42,1.38,3.82,1.38h19.66c1.39,0,2.74-.48,3.81-1.38l13.16-10.96c1.36-1.13,2.14-2.81,2.14-4.57v-14.4c0-1.77-.78-3.45-2.14-4.58Zm-26.8,33.48c-1.84-2.44-7.24-10.29-7.24-21.7,0-3.06.39-12.58,7.24-21.71,1.83,2.45,7.23,10.29,7.23,21.71,0,3.05-.38,12.57-7.23,21.7Z" style="stroke-width:0px;fill:url(#linear-gradient-8);" />
        <path class="cls-7" d="m524.83,212.98l-13.15-10.96c-1.07-.89-2.42-1.38-3.81-1.38h-19.66c-1.4,0-2.75.49-3.82,1.38l-13.15,10.96c-1.36,1.13-2.14,2.81-2.14,4.58v14.4c0,1.76.78,3.44,2.14,4.57l13.15,10.96c1.07.9,2.42,1.38,3.82,1.38h19.66c1.39,0,2.74-.48,3.81-1.38l13.15-10.96c1.36-1.13,2.15-2.81,2.15-4.57v-14.4c0-1.77-.79-3.45-2.15-4.58Zm-26.79,33.48c-1.84-2.44-7.24-10.29-7.24-21.7,0-3.06.39-12.58,7.24-21.71,1.83,2.45,7.23,10.29,7.23,21.71,0,3.05-.38,12.57-7.23,21.7Z" style="stroke-width:0px;fill:url(#linear-gradient-9);" />
      </g>
    </g>
  </g>
</svg>